first trial																																					
nRows=24																																					
nColumns=38																																					
																																					
# SIMM Motion File Header:																																					
name MVN-013																																					
datacolumns 38																																					
datarows 24																																					
otherdata 1																																					
range 63.313 63.696																																					
endheader																																					
time	pelvis_tilt	pelvis_list	pelvis_rotation	pelvis_tx	pelvis_ty	pelvis_tz	hip_flexion_r	hip_adduction_r	hip_rotation_r	knee_angle_r	ankle_angle_r	subtalar_angle_r	mtp_angle_r	hip_flexion_l	hip_adduction_l	hip_rotation_l	knee_angle_l	ankle_angle_l	subtalar_angle_l	mtp_angle_l	lumbar_extension	lumbar_bending	lumbar_rotation	arm_flex_r	arm_add_r	arm_rot_r	elbow_flex_r	pro_sup_r	wrist_flex_r	wrist_dev_r	arm_flex_l	arm_add_l	arm_rot_l	elbow_flex_l	pro_sup_l	wrist_flex_l	wrist_dev_l
63.313	26.9725	-0.2623	86.9912	-0.2504	0.7897	0.4396	20.8522	-8.26	4.903	27.3716	-21.3998	1.1118	0	25.0438	-3.6215	2.2961	42.7952	-10.525	2.8559	0	-6.4354	-0.3991	0.5248	36.7555	-12.9356	1.9876	53.8501	14.3014	-13.3372	-22.2122	20.7041	-24.5025	-2.7399	36.148	107.7911	4.5642	12.5611
63.33	26.9731	-0.2628	86.9899	-0.2505	0.7897	0.4396	20.8518	-8.2601	4.9015	27.3697	-21.4012	1.1138	0	25.0438	-3.6215	2.2935	42.795	-10.526	2.8552	0	-6.4437	-0.4022	0.5255	36.6962	-12.8713	2.0494	53.3234	14.3533	-13.5028	-22.1952	20.7009	-24.5071	-2.732	36.1571	107.7912	4.5677	12.5591
63.346	26.9736	-0.2635	86.9896	-0.2505	0.7897	0.4396	20.8517	-8.2604	4.9013	27.3679	-21.4029	1.1151	0	25.0446	-3.6208	2.2921	42.7953	-10.5267	2.8543	0	-6.4526	-0.4046	0.5273	36.6349	-12.8123	2.1006	52.8212	14.3985	-13.6526	-22.1961	20.7009	-24.5097	-2.7201	36.1644	107.7844	4.5704	12.5576
63.363	26.9741	-0.2641	86.9902	-0.2505	0.7897	0.4396	20.8523	-8.261	4.9034	27.3662	-21.4055	1.115	0	25.0467	-3.619	2.2934	42.7965	-10.5272	2.8527	0	-6.4634	-0.4062	0.5318	36.5677	-12.7581	2.1304	52.3491	14.4463	-13.78	-22.2197	20.707	-24.5088	-2.7001	36.1693	107.7637	4.5717	12.5577
63.38	26.9745	-0.2652	86.9915	-0.2505	0.7897	0.4397	20.8532	-8.2619	4.9069	27.3645	-21.4084	1.1142	0	25.0496	-3.6166	2.2959	42.7982	-10.5273	2.8509	0	-6.4747	-0.4071	0.5376	36.4986	-12.709	2.1497	51.9014	14.4878	-13.8912	-22.2602	20.7163	-24.506	-2.6759	36.1725	107.7361	4.5722	12.5585
63.396	26.9748	-0.2665	86.9931	-0.2506	0.7896	0.4397	20.8545	-8.2628	4.9103	27.3634	-21.4108	1.1132	0	25.0528	-3.6149	2.2969	42.8002	-10.5275	2.8504	0	-6.4856	-0.4074	0.5428	36.4354	-12.668	2.1652	51.4731	14.5154	-13.9942	-22.3068	20.7255	-24.5021	-2.6597	36.1805	107.7144	4.5728	12.5612
63.413	26.9748	-0.2685	86.9948	-0.2506	0.7896	0.4397	20.8567	-8.2638	4.913	27.3639	-21.4118	1.1121	0	25.0565	-3.6147	2.2952	42.8027	-10.5277	2.8523	0	-6.4957	-0.4061	0.5466	36.3822	-12.64	2.1752	51.0682	14.5246	-14.0854	-22.3592	20.7337	-24.4967	-2.6605	36.1984	107.7042	4.5737	12.5678
63.43	26.9746	-0.2707	86.9966	-0.2506	0.7896	0.4397	20.8593	-8.2648	4.9157	27.365	-21.4122	1.1109	0	25.0605	-3.6152	2.2921	42.8055	-10.5279	2.8556	0	-6.5053	-0.4042	0.5497	36.3347	-12.6199	2.1815	50.6823	14.5209	-14.1682	-22.4176	20.7418	-24.4904	-2.6693	36.2212	107.6999	4.5747	12.5765
63.446	26.9754	-0.2728	86.9983	-0.2506	0.7896	0.4398	20.8603	-8.2659	4.9181	27.3646	-21.4135	1.11	0	25.0631	-3.6156	2.2887	42.8076	-10.5286	2.8584	0	-6.5145	-0.4041	0.5529	36.2881	-12.5961	2.1965	50.2979	14.5114	-14.2613	-22.4719	20.7484	-24.4855	-2.6715	36.2404	107.698	4.5761	12.5826
63.463	26.9777	-0.2745	86.9996	-0.2507	0.7895	0.4398	20.8582	-8.267	4.9204	27.3614	-21.4167	1.11	0	25.0635	-3.6158	2.2847	42.8084	-10.53	2.86	0	-6.5233	-0.4074	0.5561	36.2407	-12.5617	2.2311	49.9069	14.4905	-14.3794	-22.5203	20.7523	-24.4839	-2.6599	36.2521	107.6998	4.5781	12.5842
63.48	26.9808	-0.2759	87.0009	-0.2507	0.7895	0.4398	20.8544	-8.268	4.9226	27.3566	-21.4208	1.1105	0	25.0627	-3.6159	2.2805	42.8086	-10.5319	2.8613	0	-6.5316	-0.4126	0.5593	36.1941	-12.5235	2.2744	49.5176	14.4631	-14.508	-22.5648	20.7549	-24.4838	-2.6417	36.2603	107.7039	4.5804	12.5833
63.496	26.9839	-0.2773	87.0023	-0.2507	0.7895	0.4398	20.851	-8.2688	4.924	27.3527	-21.4245	1.1107	0	25.0619	-3.6157	2.2783	42.8087	-10.5341	2.8623	0	-6.5396	-0.4176	0.5629	36.1486	-12.4902	2.3064	49.1365	14.4517	-14.6217	-22.6017	20.7592	-24.4824	-2.624	36.2677	107.703	4.5826	12.5823
63.513	26.9862	-0.2793	87.0048	-0.2507	0.7895	0.4399	20.8488	-8.2691	4.9248	27.3506	-21.4272	1.1105	0	25.0619	-3.6149	2.2798	42.8089	-10.5367	2.8634	0	-6.547	-0.4216	0.5675	36.1032	-12.4656	2.3168	48.7692	14.4639	-14.7111	-22.6311	20.7679	-24.4772	-2.6072	36.2736	107.6912	4.5843	12.5811
63.53	26.9885	-0.2813	87.0073	-0.2507	0.7895	0.4399	20.847	-8.2691	4.9248	27.3494	-21.4295	1.1101	0	25.0619	-3.6138	2.2835	42.8091	-10.5397	2.8644	0	-6.554	-0.4255	0.5725	36.0588	-12.4458	2.3159	48.41	14.4928	-14.7858	-22.6531	20.7785	-24.4707	-2.5909	36.2789	107.6744	4.5859	12.5798
63.546	26.9906	-0.2831	87.009	-0.2507	0.7895	0.4399	20.8455	-8.2688	4.9243	27.3479	-21.4321	1.1095	0	25.0621	-3.6133	2.287	42.8093	-10.5421	2.865	0	-6.5605	-0.4297	0.5769	36.0188	-12.4286	2.3147	48.0475	14.5388	-14.8492	-22.6639	20.7862	-24.4673	-2.5807	36.2892	107.6631	4.5869	12.5808
63.563	26.9922	-0.2846	87.0095	-0.2508	0.7895	0.4399	20.8447	-8.2675	4.9231	27.3461	-21.4351	1.1081	0	25.0626	-3.614	2.2898	42.8101	-10.543	2.8653	0	-6.5662	-0.4345	0.5799	35.9849	-12.4134	2.3137	47.6766	14.6072	-14.8896	-22.6622	20.7886	-24.4702	-2.5829	36.3096	107.6622	4.5869	12.5869
63.58	26.9936	-0.2857	87.0089	-0.2508	0.7894	0.44	20.8441	-8.2659	4.9213	27.344	-21.4383	1.1065	0	25.0633	-3.6152	2.2925	42.811	-10.5433	2.8653	0	-6.5714	-0.4396	0.5822	35.9553	-12.4007	2.3124	47.3024	14.6929	-14.9188	-22.6491	20.7883	-24.4764	-2.5913	36.3351	107.6669	4.5864	12.5955
63.596	26.9957	-0.2867	87.0086	-0.2508	0.7894	0.44	20.8425	-8.265	4.9188	27.3412	-21.4422	1.1064	0	25.0628	-3.6161	2.2945	42.811	-10.5445	2.8652	0	-6.5769	-0.4454	0.585	35.9286	-12.3903	2.3197	46.929	14.7807	-14.9754	-22.6235	20.7885	-24.4811	-2.5934	36.356	107.6735	4.5869	12.6006
63.613	26.999	-0.2873	87.0086	-0.2508	0.7894	0.44	20.8388	-8.2657	4.9148	27.3373	-21.4469	1.109	0	25.0604	-3.6163	2.295	42.8096	-10.5473	2.8649	0	-6.5831	-0.4526	0.5893	35.9047	-12.3802	2.3426	46.5577	14.8655	-15.081	-22.5844	20.7903	-24.4818	-2.581	36.3668	107.684	4.5893	12.5982
63.63	27.0028	-0.2878	87.0088	-0.2508	0.7894	0.44	20.834	-8.2672	4.9102	27.3326	-21.4522	1.1131	0	25.057	-3.616	2.2949	42.8073	-10.5511	2.8645	0	-6.5897	-0.4605	0.5942	35.8836	-12.3724	2.3742	46.1873	14.9521	-15.2141	-22.533	20.7926	-24.4811	-2.5623	36.3731	107.6965	4.5927	12.5924
63.646	27.0064	-0.2884	87.0092	-0.2508	0.7894	0.44	20.8296	-8.2683	4.9074	27.3277	-21.4577	1.1159	0	25.0537	-3.6156	2.2949	42.8045	-10.555	2.8649	0	-6.5963	-0.4674	0.5978	35.8636	-12.372	2.402	45.8182	15.0407	-15.3496	-22.4715	20.7953	-24.4827	-2.5487	36.382	107.7017	4.5953	12.5897
63.663	27.0093	-0.2896	87.0104	-0.2508	0.7894	0.4401	20.8261	-8.2688	4.9075	27.3226	-21.4636	1.1162	0	25.0511	-3.6149	2.2961	42.8011	-10.5588	2.8664	0	-6.6033	-0.4723	0.5993	35.8441	-12.386	2.4207	45.4532	15.132	-15.4859	-22.397	20.799	-24.4881	-2.5459	36.397	107.6911	4.5961	12.5939
63.68	27.0119	-0.2911	87.0118	-0.2508	0.7894	0.4401	20.8229	-8.2689	4.9094	27.3173	-21.4696	1.1154	0	25.0487	-3.614	2.2975	42.7971	-10.5628	2.8686	0	-6.6105	-0.4763	0.5995	35.8256	-12.4074	2.4356	45.0895	15.2255	-15.6246	-22.3128	20.8032	-24.4958	-2.5481	36.4145	107.6732	4.5961	12.6012
63.696	27.0148	-0.2924	87.0124	-0.2508	0.7894	0.4401	20.8196	-8.2687	4.9118	27.3121	-21.4754	1.1146	0	25.0461	-3.6138	2.2979	42.7935	-10.5664	2.8707	0	-6.617	-0.4807	0.5995	35.808	-12.4205	2.4513	44.7187	15.3201	-15.7446	-22.2312	20.805	-24.5045	-2.5495	36.4317	107.6646	4.5967	12.6068
